<svg width="220" height="60" viewBox="0 0 220 60" fill="none" xmlns="http://www.w3.org/2000/svg">
<g id="Frame 1" clip-path="url(#clip0)">
<g id="TriangleGroup">
<path id="Triangle2" d="M55 30L10 55.9808V4.01924L55 30Z" fill-opacity="0.89"/>
<path id="Triangle1" d="M55 30L10 55.9808V4.01924L55 30Z" fill-opacity="0.89"/>
</g>
<g id="TextGroup">
<path id="BrandText" d="M21.7471 34.6055L24.4814 21.2266H27.5454L23.4438 39H20.4897L17.1084 26.0239L13.6538 39H10.6875L6.58594 21.2266H9.6499L12.4087 34.5811L15.8022 21.2266H18.3901L21.7471 34.6055ZM34.9429 39.2441C33.063 39.2441 31.5371 38.6541 30.3652 37.4741C29.2015 36.286 28.6196 34.7072 28.6196 32.7378V32.3716C28.6196 31.0532 28.8719 29.8773 29.3765 28.8438C29.8892 27.8021 30.6053 26.9924 31.5249 26.4146C32.4445 25.8368 33.4699 25.5479 34.6011 25.5479C36.3996 25.5479 37.7871 26.1216 38.7637 27.269C39.7484 28.4165 40.2407 30.04 40.2407 32.1396V33.3359H31.6104C31.6999 34.4264 32.062 35.2891 32.6968 35.9238C33.3397 36.5586 34.1453 36.876 35.1138 36.876C36.4728 36.876 37.5796 36.3267 38.4341 35.228L40.0332 36.7539C39.5042 37.5433 38.7962 38.1577 37.9092 38.5972C37.0303 39.0285 36.0415 39.2441 34.9429 39.2441ZM34.5889 27.9282C33.7751 27.9282 33.1159 28.2131 32.6113 28.7827C32.1149 29.3524 31.7975 30.1458 31.6592 31.1631H37.311V30.9434C37.2459 29.9505 36.9814 29.2018 36.5176 28.6973C36.0537 28.1846 35.4108 27.9282 34.5889 27.9282ZM54.1445 32.5303C54.1445 34.5811 53.6847 36.2127 52.7651 37.4253C51.8537 38.6379 50.5964 39.2441 48.9932 39.2441C47.4469 39.2441 46.2425 38.6867 45.3799 37.5718L45.2334 39H42.5479V20.25H45.5142V27.0615C46.3687 26.0524 47.5202 25.5479 48.9688 25.5479C50.5801 25.5479 51.8455 26.146 52.7651 27.3423C53.6847 28.5386 54.1445 30.2109 54.1445 32.3594V32.5303ZM51.1782 32.2739C51.1782 30.8416 50.9259 29.7674 50.4214 29.0513C49.9168 28.3351 49.1844 27.9771 48.2241 27.9771C46.9383 27.9771 46.035 28.5386 45.5142 29.6616V35.106C46.0431 36.2534 46.9546 36.8271 48.2485 36.8271C49.1763 36.8271 49.8924 36.4813 50.397 35.7896C50.9015 35.0978 51.1619 34.0521 51.1782 32.6523V32.2739ZM62.311 32.2983C62.311 30.2638 62.783 28.6322 63.7271 27.4033C64.6711 26.1663 65.9365 25.5479 67.5234 25.5479C68.9232 25.5479 70.0544 26.0361 70.917 27.0127V20.25H73.8833V39H71.1978L71.0513 37.6328C70.1642 38.707 68.9801 39.2441 67.499 39.2441C65.9528 39.2441 64.6995 38.6216 63.7393 37.3765C62.7871 36.1313 62.311 34.4386 62.311 32.2983ZM65.2773 32.5547C65.2773 33.8975 65.5337 34.9473 66.0464 35.7041C66.5672 36.4528 67.3037 36.8271 68.2559 36.8271C69.4684 36.8271 70.3555 36.286 70.917 35.2036V29.564C70.3717 28.506 69.4928 27.9771 68.2803 27.9771C67.32 27.9771 66.5794 28.3595 66.0586 29.1245C65.5378 29.8813 65.2773 31.0247 65.2773 32.5547ZM82.7944 39.2441C80.9146 39.2441 79.3887 38.6541 78.2168 37.4741C77.0531 36.286 76.4712 34.7072 76.4712 32.7378V32.3716C76.4712 31.0532 76.7235 29.8773 77.228 28.8438C77.7407 27.8021 78.4569 26.9924 79.3765 26.4146C80.2961 25.8368 81.3215 25.5479 82.4526 25.5479C84.2511 25.5479 85.6387 26.1216 86.6152 27.269C87.5999 28.4165 88.0923 30.04 88.0923 32.1396V33.3359H79.4619C79.5514 34.4264 79.9136 35.2891 80.5483 35.9238C81.1912 36.5586 81.9969 36.876 82.9653 36.876C84.3244 36.876 85.4312 36.3267 86.2856 35.228L87.8848 36.7539C87.3558 37.5433 86.6478 38.1577 85.7607 38.5972C84.8818 39.0285 83.8931 39.2441 82.7944 39.2441ZM82.4404 27.9282C81.6266 27.9282 80.9674 28.2131 80.4629 28.7827C79.9665 29.3524 79.6491 30.1458 79.5107 31.1631H85.1626V30.9434C85.0975 29.9505 84.833 29.2018 84.3691 28.6973C83.9053 28.1846 83.2624 27.9282 82.4404 27.9282ZM94.8916 35.2402L97.687 25.792H100.751L96.1733 39H93.5977L88.9834 25.792H92.0596L94.8916 35.2402ZM115.753 28.502C115.363 28.4368 114.96 28.4043 114.545 28.4043C113.186 28.4043 112.27 28.9251 111.798 29.9668V39H108.832V25.792H111.664L111.737 27.269C112.453 26.1216 113.446 25.5479 114.716 25.5479C115.139 25.5479 115.489 25.6048 115.766 25.7188L115.753 28.502ZM123.2 39.2441C121.32 39.2441 119.794 38.6541 118.622 37.4741C117.458 36.286 116.876 34.7072 116.876 32.7378V32.3716C116.876 31.0532 117.129 29.8773 117.633 28.8438C118.146 27.8021 118.862 26.9924 119.782 26.4146C120.701 25.8368 121.727 25.5479 122.858 25.5479C124.656 25.5479 126.044 26.1216 127.021 27.269C128.005 28.4165 128.498 30.04 128.498 32.1396V33.3359H119.867C119.957 34.4264 120.319 35.2891 120.954 35.9238C121.597 36.5586 122.402 36.876 123.371 36.876C124.73 36.876 125.836 36.3267 126.691 35.228L128.29 36.7539C127.761 37.5433 127.053 38.1577 126.166 38.5972C125.287 39.0285 124.298 39.2441 123.2 39.2441ZM122.846 27.9282C122.032 27.9282 121.373 28.2131 120.868 28.7827C120.372 29.3524 120.054 30.1458 119.916 31.1631H125.568V30.9434C125.503 29.9505 125.238 29.2018 124.774 28.6973C124.311 28.1846 123.668 27.9282 122.846 27.9282ZM131.854 39V27.9893H129.84V25.792H131.854V24.5835C131.854 23.1187 132.261 21.9875 133.075 21.1899C133.889 20.3924 135.028 19.9937 136.493 19.9937C137.014 19.9937 137.567 20.0669 138.153 20.2134L138.08 22.5327C137.755 22.4676 137.376 22.4351 136.945 22.4351C135.529 22.4351 134.821 23.1634 134.821 24.6201V25.792H137.506V27.9893H134.821V39H131.854ZM145.197 39.2441C143.317 39.2441 141.791 38.6541 140.619 37.4741C139.455 36.286 138.874 34.7072 138.874 32.7378V32.3716C138.874 31.0532 139.126 29.8773 139.63 28.8438C140.143 27.8021 140.859 26.9924 141.779 26.4146C142.698 25.8368 143.724 25.5479 144.855 25.5479C146.653 25.5479 148.041 26.1216 149.018 27.269C150.002 28.4165 150.495 30.04 150.495 32.1396V33.3359H141.864C141.954 34.4264 142.316 35.2891 142.951 35.9238C143.594 36.5586 144.399 36.876 145.368 36.876C146.727 36.876 147.833 36.3267 148.688 35.228L150.287 36.7539C149.758 37.5433 149.05 38.1577 148.163 38.5972C147.284 39.0285 146.295 39.2441 145.197 39.2441ZM144.843 27.9282C144.029 27.9282 143.37 28.2131 142.865 28.7827C142.369 29.3524 142.051 30.1458 141.913 31.1631H147.565V30.9434C147.5 29.9505 147.235 29.2018 146.771 28.6973C146.308 28.1846 145.665 27.9282 144.843 27.9282ZM159.723 28.502C159.333 28.4368 158.93 28.4043 158.515 28.4043C157.156 28.4043 156.24 28.9251 155.768 29.9668V39H152.802V25.792H155.634L155.707 27.269C156.423 26.1216 157.416 25.5479 158.686 25.5479C159.109 25.5479 159.459 25.6048 159.735 25.7188L159.723 28.502ZM167.169 39.2441C165.29 39.2441 163.764 38.6541 162.592 37.4741C161.428 36.286 160.846 34.7072 160.846 32.7378V32.3716C160.846 31.0532 161.098 29.8773 161.603 28.8438C162.116 27.8021 162.832 26.9924 163.751 26.4146C164.671 25.8368 165.696 25.5479 166.828 25.5479C168.626 25.5479 170.014 26.1216 170.99 27.269C171.975 28.4165 172.467 30.04 172.467 32.1396V33.3359H163.837C163.926 34.4264 164.289 35.2891 164.923 35.9238C165.566 36.5586 166.372 36.876 167.34 36.876C168.699 36.876 169.806 36.3267 170.661 35.228L172.26 36.7539C171.731 37.5433 171.023 38.1577 170.136 38.5972C169.257 39.0285 168.268 39.2441 167.169 39.2441ZM166.815 27.9282C166.002 27.9282 165.342 28.2131 164.838 28.7827C164.341 29.3524 164.024 30.1458 163.886 31.1631H169.538V30.9434C169.472 29.9505 169.208 29.2018 168.744 28.6973C168.28 28.1846 167.637 27.9282 166.815 27.9282ZM177.533 25.792L177.619 27.3179C178.595 26.1379 179.877 25.5479 181.464 25.5479C184.215 25.5479 185.614 27.1226 185.663 30.272V39H182.697V30.4429C182.697 29.6047 182.514 28.9862 182.147 28.5874C181.789 28.1805 181.199 27.9771 180.377 27.9771C179.181 27.9771 178.29 28.5182 177.704 29.6006V39H174.738V25.792H177.533ZM194.123 36.876C194.863 36.876 195.478 36.6603 195.966 36.229C196.454 35.7977 196.715 35.2646 196.747 34.6299H199.542C199.51 35.4518 199.254 36.2209 198.773 36.937C198.293 37.645 197.642 38.2065 196.82 38.6216C195.998 39.0366 195.111 39.2441 194.159 39.2441C192.312 39.2441 190.847 38.646 189.765 37.4497C188.682 36.2534 188.141 34.6014 188.141 32.4937V32.1885C188.141 30.1784 188.678 28.5711 189.752 27.3667C190.827 26.1541 192.292 25.5479 194.147 25.5479C195.718 25.5479 196.995 26.0076 197.98 26.9272C198.973 27.8387 199.494 29.0391 199.542 30.5283H196.747C196.715 29.7715 196.454 29.1489 195.966 28.6606C195.486 28.1724 194.871 27.9282 194.123 27.9282C193.162 27.9282 192.422 28.2782 191.901 28.978C191.38 29.6698 191.116 30.7236 191.107 32.1396V32.6157C191.107 34.048 191.364 35.1182 191.876 35.8262C192.397 36.526 193.146 36.876 194.123 36.876ZM207.599 39.2441C205.719 39.2441 204.193 38.6541 203.021 37.4741C201.858 36.286 201.276 34.7072 201.276 32.7378V32.3716C201.276 31.0532 201.528 29.8773 202.033 28.8438C202.545 27.8021 203.262 26.9924 204.181 26.4146C205.101 25.8368 206.126 25.5479 207.257 25.5479C209.056 25.5479 210.443 26.1216 211.42 27.269C212.405 28.4165 212.897 30.04 212.897 32.1396V33.3359H204.267C204.356 34.4264 204.718 35.2891 205.353 35.9238C205.996 36.5586 206.802 36.876 207.77 36.876C209.129 36.876 210.236 36.3267 211.09 35.228L212.689 36.7539C212.16 37.5433 211.452 38.1577 210.565 38.5972C209.687 39.0285 208.698 39.2441 207.599 39.2441ZM207.245 27.9282C206.431 27.9282 205.772 28.2131 205.268 28.7827C204.771 29.3524 204.454 30.1458 204.315 31.1631H209.967V30.9434C209.902 29.9505 209.638 29.2018 209.174 28.6973C208.71 28.1846 208.067 27.9282 207.245 27.9282Z" fill="black"/>
</g>
</g>
<defs>
<clipPath id="clip0">
<rect width="220" height="60" fill="white"/>
</clipPath>
</defs>
</svg>
